<?xml version="1.0" standalone="no"?>
<!DOCTYPE svg PUBLIC "-//W3C//DTD SVG 20010904//EN"
 "http://www.w3.org/TR/2001/REC-SVG-20010904/DTD/svg10.dtd">
<svg version="1.0" xmlns="http://www.w3.org/2000/svg"
 width="1025.000000pt" height="1025.000000pt" viewBox="0 0 1025.000000 1025.000000"
 preserveAspectRatio="xMidYMid meet">
<metadata>
Created by potrace 1.14, written by Peter Selinger 2001-2017
</metadata>
<g transform="translate(0.000000,1025.000000) scale(0.100000,-0.100000)"
fill="#000000" stroke="none">
<path d="M622 6498 l3 -3752 80 -2 c103 -3 311 -13 398 -19 l67 -5 0 3492 0
3493 3953 0 3952 0 0 -3492 0 -3493 65 5 c106 7 350 18 418 19 l62 1 0 3752 0
3753 -4500 0 -4500 0 2 -3752z"/>
<path d="M2125 7383 c0 -1206 2 -1363 15 -1363 23 -1 301 -1 337 -1 l33 1 2
533 3 532 135 1 c118 1 164 4 255 19 11 2 32 8 46 13 15 6 30 8 33 5 3 -4 6 0
6 7 0 7 3 10 7 7 3 -4 12 -2 20 4 7 6 13 8 13 5 0 -4 13 2 29 13 16 12 32 21
36 21 4 0 16 10 26 22 11 11 19 17 19 13 0 -4 9 3 21 16 12 13 25 23 29 22 5
-2 12 6 15 17 4 11 11 20 16 20 5 0 9 5 9 10 0 6 11 23 25 38 14 15 25 32 25
39 0 7 5 13 11 13 5 0 7 5 4 10 -3 6 -1 10 5 10 6 0 8 5 5 10 -3 6 -1 10 5 10
6 0 8 5 5 10 -3 6 -1 10 4 10 6 0 10 3 10 8 -1 4 0 10 1 15 1 4 4 12 5 17 1 6
3 11 5 13 1 1 3 9 5 17 2 8 6 25 9 38 13 51 17 70 24 122 9 71 9 385 0 470 -7
61 -9 75 -24 133 -3 12 -7 29 -9 37 -2 8 -4 16 -5 18 -2 1 -3 5 -4 10 -7 28
-31 82 -38 82 -4 0 -7 4 -5 8 2 10 -28 54 -60 87 -12 13 -19 26 -16 29 4 3 -1
6 -11 6 -9 0 -14 5 -11 10 3 6 1 10 -6 10 -6 0 -22 10 -34 23 -29 30 -77 63
-87 60 -4 -2 -8 2 -8 8 0 5 -4 7 -10 4 -5 -3 -10 -1 -10 4 0 6 -3 10 -7 9 -5
-1 -18 3 -30 10 -13 7 -23 10 -23 6 0 -3 -6 -2 -12 3 -7 6 -29 13 -48 17 -19
3 -46 9 -60 12 -14 3 -185 7 -380 8 l-355 2 0 -1363z m750 970 c22 -12 50 -30
61 -42 12 -11 26 -17 30 -13 5 4 6 3 2 -2 -4 -5 2 -27 13 -49 12 -22 23 -52
26 -66 21 -112 23 -411 4 -503 -6 -27 -9 -54 -5 -59 3 -5 2 -9 -3 -9 -4 0 -17
-18 -27 -40 -10 -21 -35 -50 -55 -63 -71 -46 -98 -52 -256 -52 l-150 0 -1 463
-1 464 161 -4 c142 -3 166 -6 201 -25z"/>
<path d="M3721 8742 c-8 -3 -11 -380 -11 -1352 0 -742 2 -1354 5 -1362 4 -10
34 -13 133 -11 70 1 154 2 187 2 l60 1 0 583 0 583 118 -1 c125 0 132 -3 142
-53 2 -10 4 -18 5 -19 2 -2 4 -7 5 -13 1 -5 4 -12 5 -15 1 -3 3 -8 4 -12 3
-13 38 -127 44 -143 3 -8 6 -18 6 -22 1 -3 4 -9 8 -13 4 -4 4 -13 1 -21 -3 -8
0 -14 7 -14 7 0 10 -6 7 -14 -3 -7 0 -19 6 -25 6 -6 8 -11 4 -11 -4 0 -1 -13
8 -30 9 -16 13 -30 9 -30 -4 0 -1 -7 6 -15 7 -8 10 -15 6 -15 -3 0 -1 -12 5
-27 12 -31 58 -179 64 -205 2 -9 8 -25 13 -35 6 -10 10 -21 10 -26 1 -8 40
-144 49 -167 4 -8 7 -18 8 -22 2 -5 3 -9 5 -10 2 -3 5 -17 14 -55 2 -12 10
-31 16 -42 6 -12 8 -21 5 -21 -3 0 1 -12 8 -27 8 -16 12 -33 10 -40 -2 -6 1
-14 7 -18 12 -7 399 -9 406 -3 2 2 -4 17 -12 33 -9 17 -15 31 -15 33 1 1 1 3
0 5 -4 12 -10 44 -11 55 -1 6 -6 12 -11 12 -6 0 -8 3 -4 6 3 4 0 19 -9 35 -8
16 -14 32 -14 36 0 5 -9 35 -20 68 -11 33 -20 65 -21 70 0 6 -4 15 -8 20 -7 9
-14 29 -27 80 -1 6 -9 27 -18 48 -9 20 -13 37 -10 37 4 0 1 6 -5 13 -6 8 -8
17 -4 20 3 4 1 7 -6 7 -6 0 -11 6 -9 13 1 6 -3 21 -9 32 -6 11 -11 23 -12 28
-1 4 -1 8 -2 10 0 1 -2 13 -5 26 -2 14 -9 30 -15 38 -6 7 -8 13 -4 13 4 0 2 7
-5 15 -7 8 -9 15 -5 15 4 0 2 7 -5 15 -7 8 -9 15 -5 15 4 0 2 7 -5 15 -7 8
-10 15 -6 15 4 0 0 13 -9 30 -8 16 -15 32 -15 35 0 3 0 6 -1 8 0 1 -3 13 -5
27 -3 13 -9 29 -14 34 -6 6 -10 19 -10 31 0 12 -5 26 -12 33 -7 7 -9 12 -5 12
4 0 1 14 -8 30 -9 17 -13 30 -11 30 3 0 -3 20 -14 44 -10 24 -16 47 -13 50 4
3 2 6 -4 6 -5 0 -10 14 -11 30 0 17 4 28 9 25 5 -4 9 -2 9 2 0 5 20 19 44 33
25 13 43 28 40 32 -3 4 -1 8 4 8 5 0 27 16 48 36 22 20 32 34 24 30 -8 -4 -4
2 9 13 13 12 19 21 15 21 -5 0 -1 5 9 11 9 6 15 14 12 20 -4 5 -2 9 4 9 9 0
68 142 77 185 35 172 38 369 9 515 -3 14 -7 34 -9 45 -10 51 -29 111 -38 123
-6 6 -7 12 -4 12 4 0 1 10 -6 23 -7 12 -13 24 -13 27 -4 18 -30 60 -37 60 -4
0 -8 5 -8 11 0 6 -6 16 -12 24 -7 7 -28 31 -47 53 -19 23 -38 39 -43 36 -4 -3
-8 -1 -8 4 0 11 -91 68 -102 64 -5 -1 -8 3 -8 9 0 5 -4 7 -10 4 -5 -3 -10 -2
-10 3 0 4 -24 14 -52 22 -57 15 -56 15 -108 25 -35 8 -749 14 -769 7z m664
-365 c59 -7 105 -19 105 -28 0 -5 6 -9 13 -9 7 0 19 -6 26 -12 6 -7 17 -13 24
-13 7 0 12 -5 12 -12 0 -7 8 -21 17 -32 9 -11 14 -22 11 -25 -4 -3 -2 -6 4 -6
5 0 10 -7 11 -15 1 -8 3 -22 4 -30 1 -8 4 -15 7 -15 10 0 14 -59 14 -230 0
-167 -3 -204 -21 -251 -6 -15 -8 -30 -5 -33 4 -3 1 -6 -6 -6 -7 0 -17 -13 -22
-30 -6 -16 -18 -30 -26 -30 -8 0 -12 -4 -9 -8 5 -9 -64 -44 -114 -58 -29 -8
-329 -12 -331 -4 -1 3 -2 196 -3 430 l-1 425 130 -2 c72 -1 144 -4 160 -6z"/>
<path d="M5362 8736 c-7 -12 -7 -2704 0 -2712 6 -6 1147 -8 1153 -2 4 3 7 195
6 328 l-1 55 -389 -1 -388 -2 0 404 0 404 336 2 336 3 3 180 2 180 -337 0
-338 0 -1 405 -2 405 389 0 389 0 0 180 0 180 -576 0 c-339 0 -578 -4 -582 -9z"/>
<path d="M6859 8730 c-4 -82 -1 -2702 3 -2706 3 -3 90 -6 192 -7 180 -2 186
-1 187 18 0 11 1 251 1 533 0 281 3 512 7 513 3 1 65 2 136 4 169 3 302 22
332 47 7 6 13 7 13 4 0 -4 27 7 60 25 33 17 60 36 60 41 0 5 5 6 10 3 6 -3 10
-2 10 4 0 5 9 12 20 16 11 3 19 9 17 13 -1 4 14 23 33 43 53 56 69 77 63 83
-4 3 -1 6 6 6 7 0 9 5 6 10 -3 6 -3 10 2 10 8 0 31 45 34 65 0 6 4 15 9 20 7
9 28 76 36 115 36 178 33 521 -5 673 -5 20 -7 37 -4 37 3 0 0 6 -6 13 -6 8
-13 24 -15 38 -3 13 -5 26 -6 29 -2 3 -2 8 -1 13 0 4 -4 7 -10 7 -5 0 -8 4 -5
9 4 5 2 11 -3 13 -5 1 -11 9 -13 17 -3 14 -21 41 -45 66 -7 7 -11 14 -10 16 2
2 -17 24 -42 49 -24 25 -41 38 -37 30 4 -8 -7 1 -24 20 -17 19 -28 28 -24 20
5 -10 -1 -8 -17 5 -31 26 -82 54 -105 58 -11 1 -24 6 -31 10 -6 4 -24 9 -40
11 -15 3 -39 7 -53 11 -14 4 -186 8 -382 9 -315 1 -358 0 -359 -14z m657 -354
c59 -6 132 -36 154 -62 39 -49 60 -84 60 -103 0 -12 3 -21 8 -21 4 0 9 -21 11
-48 6 -73 6 -391 -1 -447 -7 -63 -44 -151 -72 -170 -11 -8 -16 -15 -11 -15 14
-1 -51 -29 -102 -45 -60 -18 -313 -21 -314 -3 -1 7 -2 216 -3 463 l-1 450 40
5 c46 6 156 4 231 -4z"/>
<path d="M4267 5494 c-1 -1 -18 -4 -37 -7 -59 -10 -92 -18 -110 -27 -10 -5
-20 -6 -24 -3 -3 3 -6 1 -6 -6 0 -7 -4 -10 -9 -7 -5 3 -25 -5 -45 -19 -20 -13
-36 -21 -36 -17 0 4 -4 3 -8 -3 -16 -22 -76 -69 -62 -50 7 11 -12 -7 -43 -40
-31 -33 -63 -72 -69 -87 -7 -16 -16 -28 -20 -28 -5 0 -8 -7 -8 -15 0 -8 -5
-15 -10 -15 -6 0 -9 -3 -8 -7 1 -5 -3 -18 -10 -30 -7 -13 -10 -23 -6 -23 3 0
2 -6 -4 -12 -5 -7 -13 -26 -16 -43 -4 -16 -10 -43 -14 -60 -9 -39 -9 -1718 0
-1770 8 -45 24 -113 28 -125 1 -3 2 -8 1 -12 0 -5 4 -8 10 -8 5 0 8 -4 5 -9
-4 -5 -2 -11 4 -13 6 -2 12 -13 15 -26 2 -12 10 -29 17 -37 31 -34 36 -43 31
-49 -4 -3 -1 -6 5 -6 7 0 12 -7 12 -15 0 -8 4 -14 9 -13 5 2 25 -14 44 -34 19
-21 37 -35 41 -31 3 3 6 2 6 -4 0 -13 118 -73 143 -73 9 0 17 -5 17 -12 0 -6
3 -9 6 -6 3 4 20 2 37 -3 77 -22 232 -30 302 -16 77 16 91 20 100 26 6 3 12 6
15 7 19 3 59 25 65 34 3 5 11 8 16 5 5 -4 9 -1 9 5 0 6 5 8 10 5 6 -3 13 1 16
9 3 9 11 16 16 16 6 0 19 10 29 22 11 11 19 18 19 15 0 -3 13 6 29 21 15 15
27 30 25 33 -1 3 8 13 22 23 13 11 24 23 24 28 0 5 9 18 20 30 10 12 17 25 14
30 -3 4 -1 8 4 8 9 0 25 37 23 53 -1 4 3 7 9 7 6 0 9 3 9 8 -1 4 0 10 1 15 1
4 4 12 5 17 1 6 4 12 5 15 1 3 4 10 5 15 1 6 3 11 5 13 8 10 13 62 17 185 l5
142 -191 0 -191 0 -1 -52 c-1 -29 0 -65 0 -79 3 -39 -29 -169 -41 -169 -6 0
-9 -3 -6 -6 8 -7 -55 -72 -64 -67 -5 2 -8 -1 -8 -7 0 -6 -4 -8 -10 -5 -5 3
-10 1 -10 -5 0 -7 -7 -10 -15 -6 -8 3 -15 2 -15 -3 0 -12 -124 -13 -167 -2
-40 11 -113 72 -128 106 -9 21 -10 26 -21 65 -9 35 -11 1512 -2 1585 9 69 11
81 22 115 10 30 94 113 106 105 5 -3 11 -1 14 4 4 5 46 8 94 6 101 -3 112 -5
112 -17 0 -5 4 -7 8 -4 5 3 14 -4 22 -14 8 -10 17 -17 22 -14 4 3 8 -2 8 -11
0 -8 7 -18 15 -21 8 -4 15 -12 15 -20 0 -8 5 -14 10 -14 6 0 9 -3 8 -7 0 -5 2
-15 5 -23 16 -41 24 -93 25 -169 1 -46 3 -86 6 -88 4 -4 181 -6 351 -3 29 0
30 2 28 42 -1 24 -3 83 -4 133 -3 80 -17 162 -36 205 -3 8 -7 21 -9 28 -1 7
-9 24 -18 37 -9 13 -16 31 -16 40 0 8 -4 15 -10 15 -5 0 -10 7 -10 15 0 8 -5
15 -12 15 -6 0 -9 2 -6 6 7 6 -134 150 -144 146 -5 -1 -8 2 -8 8 0 6 -7 10
-15 10 -8 0 -15 3 -15 8 0 6 -56 36 -70 37 -3 0 -11 4 -19 9 -28 18 -174 44
-242 43 -38 0 -70 -2 -72 -3z m-96 -2331 c13 -16 12 -17 -3 -4 -17 13 -22 21
-14 21 2 0 10 -8 17 -17z"/>
<path d="M2125 4113 c0 -902 3 -1363 10 -1364 43 -3 367 -1 370 3 3 2 5 192 5
421 1 253 5 417 10 417 5 0 12 11 16 25 3 14 10 25 15 25 5 0 9 3 8 8 -2 15
14 52 22 52 5 0 9 5 9 11 0 6 9 23 20 39 11 15 17 30 13 34 -3 3 0 6 7 6 7 0
10 3 7 6 -4 4 2 19 12 33 10 14 22 36 25 49 4 12 12 22 17 22 5 0 8 3 7 8 -2
12 14 42 23 42 8 0 26 -34 34 -62 2 -5 4 -10 5 -13 1 -3 4 -9 5 -15 1 -5 4
-13 5 -17 1 -5 2 -11 1 -15 0 -5 4 -8 11 -8 6 0 8 -3 5 -7 -4 -3 -2 -12 4 -20
6 -7 8 -13 4 -13 -4 0 -2 -7 5 -15 7 -8 10 -15 6 -15 -4 0 3 -18 14 -40 11
-22 18 -40 14 -40 -4 0 -1 -7 6 -15 7 -8 9 -15 5 -15 -4 0 -2 -6 4 -14 7 -8
14 -22 16 -32 7 -29 49 -148 55 -154 3 -3 6 -12 8 -20 1 -8 7 -24 11 -35 10
-22 23 -56 26 -67 2 -5 4 -10 5 -13 1 -3 3 -8 5 -12 1 -5 5 -16 9 -25 4 -9 9
-22 10 -30 2 -7 8 -26 14 -41 7 -16 12 -35 12 -43 0 -8 5 -14 12 -14 6 0 8 -3
5 -7 -4 -3 -2 -12 4 -20 6 -7 8 -13 4 -13 -4 0 -2 -7 5 -15 7 -8 9 -15 6 -15
-4 0 -1 -10 6 -22 7 -13 13 -26 14 -30 1 -5 2 -9 4 -10 1 -2 3 -10 5 -18 2 -8
7 -26 13 -40 5 -14 9 -28 8 -31 0 -3 5 -13 13 -22 7 -10 11 -17 8 -17 -3 0 0
-12 8 -27 8 -15 12 -30 9 -35 -3 -4 0 -8 6 -8 6 0 9 -4 5 -9 -3 -5 -1 -12 5
-16 6 -4 8 -10 5 -15 -3 -5 -1 -12 5 -15 9 -5 328 -10 397 -6 13 1 13 1 -28
96 -7 17 -13 33 -15 38 -1 4 -3 10 -4 15 -1 4 -2 10 -1 15 0 4 -4 7 -9 7 -6 0
-10 6 -9 13 1 6 -2 23 -8 37 -6 14 -10 27 -10 30 0 3 -10 25 -23 50 -13 25
-22 46 -22 47 2 4 -9 35 -33 95 -13 31 -21 59 -18 62 4 3 1 6 -6 6 -7 0 -10 4
-6 9 3 5 1 12 -5 16 -6 4 -8 10 -5 15 3 5 1 11 -5 15 -5 3 -10 15 -10 26 0 10
-5 19 -11 19 -5 0 -8 4 -4 9 3 5 1 12 -5 16 -6 4 -7 11 -4 17 4 6 1 14 -5 18
-7 4 -14 13 -15 21 -4 19 -16 51 -27 71 -5 10 -9 23 -9 30 0 7 -6 24 -13 38
-7 14 -21 48 -31 75 -10 28 -20 57 -23 65 -4 8 -7 18 -7 22 -1 3 -4 10 -8 14
-5 4 -8 16 -8 26 0 10 -5 18 -10 18 -6 0 -9 3 -9 8 1 4 0 9 -1 12 -1 3 -3 12
-5 20 -2 8 -9 29 -16 45 -7 17 -12 33 -11 38 1 4 -3 7 -9 7 -5 0 -8 3 -5 8 2
4 -6 30 -19 57 -12 28 -21 53 -18 58 2 4 -1 7 -6 7 -6 0 -10 3 -9 8 1 4 -4 23
-11 42 -8 19 -15 38 -16 43 -1 4 -4 9 -5 12 -1 3 -3 9 -4 14 0 5 -4 13 -8 17
-5 4 -8 16 -8 26 0 10 -4 18 -10 18 -5 0 -9 3 -9 8 1 4 0 10 -1 15 -1 4 -3 10
-5 15 -5 17 -17 48 -26 64 -14 28 -11 47 20 108 16 32 27 61 24 64 -4 3 -1 6
6 6 7 0 9 5 6 10 -3 6 -1 10 4 10 6 0 11 9 11 20 0 11 4 20 10 20 5 0 10 3 9
8 -2 15 14 52 22 52 5 0 9 3 8 8 -2 15 14 52 23 52 5 0 6 5 3 10 -3 6 -1 10 4
10 6 0 10 3 9 8 -2 10 24 65 35 73 5 3 8 9 8 13 -1 3 11 32 26 64 14 31 26 60
25 65 -1 4 3 7 9 7 5 0 7 5 4 10 -3 6 -1 10 5 10 6 0 8 5 5 10 -3 6 -1 10 5
10 6 0 9 4 6 9 -3 5 1 14 9 21 8 7 13 16 10 20 -3 4 2 13 10 20 8 7 12 16 9
21 -3 5 0 9 7 9 7 0 9 3 6 6 -4 4 2 19 12 33 10 14 19 28 19 31 -1 10 45 106
57 120 8 8 14 18 14 23 2 21 14 57 20 57 6 0 32 53 35 72 0 3 4 10 9 14 25 25
0 29 -175 28 -215 -2 -198 0 -198 -19 0 -8 -4 -15 -10 -15 -5 0 -9 -3 -8 -7 1
-5 -3 -18 -10 -29 -6 -12 -8 -24 -5 -28 3 -3 1 -6 -5 -6 -7 0 -11 -3 -10 -7 1
-5 -10 -31 -24 -60 -14 -28 -24 -54 -21 -57 4 -3 1 -6 -6 -6 -7 0 -9 -4 -6
-10 3 -5 1 -10 -4 -10 -6 0 -11 -8 -11 -17 0 -10 -7 -27 -15 -37 -8 -10 -12
-23 -9 -27 3 -5 0 -9 -5 -9 -6 0 -10 -3 -9 -7 1 -5 -10 -32 -25 -60 -15 -29
-27 -55 -28 -58 0 -2 -18 -44 -41 -92 -23 -49 -41 -91 -40 -95 1 -5 -3 -8 -10
-8 -6 0 -8 -3 -5 -6 3 -4 1 -16 -5 -28 -7 -11 -13 -23 -13 -26 -1 -3 -12 -27
-25 -55 -13 -27 -23 -53 -22 -57 1 -5 -3 -8 -9 -8 -5 0 -7 -4 -4 -10 3 -5 1
-10 -5 -10 -6 0 -8 -4 -5 -10 3 -5 1 -10 -6 -10 -7 0 -10 -3 -6 -6 3 -3 -3
-23 -14 -42 -10 -20 -19 -42 -19 -49 0 -7 -4 -13 -10 -13 -5 0 -9 -3 -8 -7 1
-5 -6 -25 -15 -46 -9 -20 -17 -41 -18 -45 -1 -4 -13 -26 -25 -48 -13 -23 -20
-44 -17 -48 4 -3 0 -6 -7 -6 -7 0 -11 -3 -7 -6 6 -6 -16 -34 -27 -34 -3 0 -6
277 -6 615 0 338 -3 616 -7 616 -5 1 -91 2 -193 3 l-185 1 0 -1362z"/>
<path d="M4785 5320 c10 -11 20 -20 23 -20 3 0 -3 9 -13 20 -10 11 -20 20 -23
20 -3 0 3 -9 13 -20z"/>
<path d="M648 2172 l-28 -3 0 -280 0 -279 33 -1 c166 -4 356 -14 457 -24 88
-8 158 -16 191 -20 20 -3 56 -7 80 -10 43 -4 78 -8 157 -21 20 -3 51 -8 67
-10 17 -2 64 -10 105 -18 41 -8 77 -12 79 -10 2 2 10 -1 17 -6 6 -6 16 -10 20
-8 5 1 23 -1 39 -5 44 -11 77 -17 105 -22 14 -2 40 -9 59 -14 19 -6 37 -9 39
-6 3 3 10 0 17 -5 6 -5 28 -11 48 -12 20 -2 37 -7 37 -11 0 -4 6 -7 13 -6 6 2
30 -3 52 -9 22 -6 49 -13 60 -15 20 -4 40 -11 83 -28 13 -5 27 -7 32 -4 5 3
12 0 15 -6 4 -5 13 -8 20 -5 8 3 15 1 17 -3 3 -8 113 -43 141 -44 9 -1 17 -5
17 -10 0 -4 6 -7 13 -6 6 1 26 -3 42 -10 68 -28 134 -49 139 -43 3 3 6 -1 6
-8 0 -7 3 -10 7 -7 3 4 11 2 18 -3 6 -5 20 -11 31 -13 10 -2 33 -10 49 -17 17
-7 39 -16 50 -20 11 -4 36 -15 55 -23 47 -20 83 -31 93 -29 4 1 7 -2 7 -7 0
-9 56 -32 74 -30 5 0 12 -3 15 -8 5 -7 44 -27 63 -32 4 -1 38 -18 75 -37 37
-18 73 -34 80 -34 7 0 13 -5 13 -10 0 -6 3 -9 8 -8 4 1 31 -10 59 -25 29 -15
56 -27 59 -26 4 0 10 -3 13 -8 10 -14 71 -45 71 -36 0 4 4 3 8 -3 10 -15 102
-65 102 -56 0 4 5 -1 11 -11 6 -9 14 -15 20 -12 5 4 9 2 9 -2 0 -5 21 -20 48
-33 26 -14 49 -28 52 -31 3 -3 16 -12 30 -19 13 -7 47 -28 75 -45 27 -18 54
-32 58 -31 5 0 13 -7 18 -16 6 -10 17 -18 24 -18 8 0 15 -3 15 -7 0 -5 23 -21
50 -38 27 -16 50 -33 50 -37 0 -5 5 -8 10 -8 6 0 39 -21 73 -48 34 -26 75 -56
90 -65 27 -18 36 -25 95 -74 15 -13 33 -23 40 -23 7 0 10 -4 7 -10 -3 -5 -3
-10 2 -10 7 0 25 -14 97 -75 15 -14 31 -25 35 -25 3 0 12 -9 19 -20 7 -12 17
-18 23 -15 5 4 8 1 7 -7 -2 -7 3 -12 10 -11 6 2 12 -4 12 -12 0 -8 4 -15 9
-15 4 0 24 -13 42 -30 l34 -30 287 0 c277 0 288 1 300 20 7 11 18 20 24 20 6
0 21 14 34 30 13 17 25 28 27 26 2 -2 22 12 43 33 49 46 90 81 90 75 0 -4 40
31 86 74 13 13 24 20 24 17 0 -4 6 0 14 7 31 31 66 57 66 51 0 -3 8 4 19 15
10 12 21 19 24 16 3 -3 10 4 17 15 6 12 15 19 21 16 5 -4 12 1 15 9 3 9 12 16
20 16 8 0 14 5 14 10 0 6 5 10 11 10 6 0 17 6 24 13 33 29 45 37 54 37 5 0 11
7 15 15 3 8 12 15 21 15 8 0 15 5 15 11 0 5 4 8 8 5 5 -3 18 4 30 14 12 11 26
20 32 20 5 0 10 5 10 11 0 5 5 7 10 4 6 -3 10 -2 10 4 0 6 11 13 25 17 14 3
23 9 21 13 -2 3 15 15 37 26 23 11 51 28 61 37 10 10 22 15 26 13 5 -3 11 2
14 11 3 8 10 12 16 9 5 -3 10 -2 10 4 0 6 11 13 25 17 14 3 25 11 25 17 0 6 3
7 6 4 4 -4 21 3 38 16 16 12 37 22 45 24 8 1 17 6 20 10 6 8 319 168 331 168
3 0 29 13 58 27 28 15 52 24 52 21 0 -3 9 2 21 13 12 10 23 18 25 17 5 -3 27
5 74 25 19 8 37 16 40 16 3 1 15 7 28 14 12 7 22 10 22 6 0 -3 11 1 25 10 14
9 25 14 25 10 0 -3 11 1 25 10 14 9 25 14 25 10 0 -4 7 -1 15 6 8 7 15 10 15
6 0 -4 18 3 40 14 22 11 40 18 40 16 0 -3 20 3 44 14 24 10 47 16 50 13 3 -4
6 0 6 7 0 7 3 10 7 7 3 -4 12 -2 20 4 7 6 13 8 13 4 0 -4 7 -2 15 5 8 7 15 9
15 5 0 -4 7 -2 15 5 8 7 15 9 15 5 0 -4 7 -2 15 5 8 7 15 9 15 5 0 -4 7 -2 15
5 8 7 15 10 15 7 0 -3 32 5 70 18 39 13 70 21 70 18 0 -3 7 0 15 7 8 7 15 10
15 6 0 -3 12 -1 28 5 15 6 35 13 45 15 9 2 26 6 37 9 32 8 64 16 80 20 8 2 15
4 15 6 0 1 9 3 20 5 24 3 61 11 83 18 9 3 28 7 42 10 14 3 68 14 120 25 52 11
109 22 125 25 17 3 40 8 51 10 12 2 37 7 55 10 19 3 45 8 59 11 14 3 45 8 70
11 25 3 56 7 70 9 76 12 121 17 250 31 183 19 397 32 548 33 l62 1 0 280 c0
217 -3 280 -12 281 -28 2 -69 1 -218 -6 -257 -13 -333 -19 -514 -40 -24 -3
-61 -7 -82 -10 -22 -2 -55 -6 -74 -9 -19 -3 -51 -8 -70 -11 -19 -2 -46 -7 -60
-9 -14 -3 -43 -8 -65 -11 -64 -9 -98 -14 -125 -20 -14 -3 -36 -7 -50 -10 -14
-3 -36 -7 -50 -10 -14 -3 -36 -7 -50 -10 -14 -3 -36 -7 -50 -10 -14 -3 -34 -8
-45 -10 -11 -3 -31 -7 -45 -10 -14 -4 -34 -8 -45 -10 -11 -3 -31 -7 -45 -10
-14 -4 -36 -8 -50 -11 -14 -3 -34 -8 -45 -11 -11 -4 -24 -8 -30 -9 -12 -3 -55
-14 -75 -19 -8 -2 -15 -4 -15 -5 0 -1 -7 -3 -15 -5 -8 -2 -26 -7 -40 -10 -14
-3 -32 -8 -40 -10 -8 -2 -16 -4 -17 -5 -2 -2 -6 -3 -10 -4 -5 -2 -28 -8 -53
-16 -58 -17 -72 -21 -87 -22 -7 -1 -13 -5 -13 -10 0 -4 -3 -7 -7 -6 -5 1 -28
-5 -53 -12 -25 -7 -49 -15 -55 -16 -5 -1 -40 -14 -77 -28 -38 -14 -68 -23 -68
-20 0 2 -11 -3 -25 -12 -14 -9 -25 -14 -25 -11 0 3 -24 -5 -54 -18 -30 -13
-57 -21 -60 -18 -3 4 -6 1 -6 -6 0 -7 -4 -10 -9 -6 -5 3 -12 1 -16 -5 -4 -6
-11 -8 -16 -5 -5 4 -9 1 -9 -5 0 -6 -4 -9 -9 -5 -5 3 -12 1 -16 -5 -4 -6 -11
-8 -16 -5 -5 4 -9 1 -9 -6 0 -7 -3 -9 -7 -6 -3 4 -17 0 -30 -8 -13 -9 -23 -13
-23 -10 0 3 -10 0 -22 -7 -13 -7 -26 -11 -30 -10 -5 1 -8 -3 -8 -10 0 -6 -3
-9 -6 -5 -4 3 -19 0 -35 -9 -16 -8 -32 -15 -36 -16 -5 -1 -28 -11 -53 -24 -82
-41 -165 -77 -172 -76 -5 1 -8 -3 -8 -8 0 -5 -3 -9 -7 -8 -5 1 -26 -7 -48 -19
-22 -11 -43 -20 -46 -19 -4 0 -15 -6 -25 -15 -11 -8 -41 -26 -69 -40 -27 -13
-52 -27 -53 -32 -2 -4 -8 -5 -13 -1 -5 3 -9 0 -9 -6 0 -6 -4 -8 -10 -5 -5 3
-10 2 -10 -3 0 -6 -11 -13 -25 -16 -14 -4 -25 -11 -25 -17 0 -6 -4 -7 -10 -4
-6 3 -10 1 -10 -4 0 -6 -5 -11 -10 -11 -6 0 -28 -11 -49 -24 -21 -14 -42 -22
-45 -19 -3 4 -6 1 -6 -5 0 -7 -7 -12 -15 -12 -8 0 -15 -3 -15 -8 0 -4 -13 -13
-29 -20 -16 -7 -41 -23 -57 -37 -15 -13 -31 -22 -34 -20 -4 2 -16 -5 -28 -15
-12 -11 -27 -20 -34 -20 -8 0 -21 -8 -30 -17 -19 -21 -70 -58 -80 -58 -3 0
-18 -10 -32 -22 -14 -13 -26 -20 -26 -17 0 3 -7 -1 -15 -8 -8 -7 -20 -17 -28
-23 -7 -5 -24 -19 -37 -30 -14 -12 -20 -14 -15 -5 4 8 -1 6 -12 -5 -27 -27
-62 -55 -68 -55 -5 0 -37 -25 -60 -48 -8 -6 -17 -12 -22 -12 -5 0 -15 -9 -23
-19 -7 -11 -17 -18 -21 -16 -4 3 -10 -2 -13 -11 -3 -8 -10 -12 -16 -9 -5 3
-10 -1 -10 -9 0 -9 -3 -15 -7 -14 -5 2 -18 -6 -31 -17 -62 -52 -73 -62 -102
-85 -18 -14 -48 -41 -67 -60 -20 -19 -33 -28 -29 -20 4 8 0 6 -9 -5 -14 -17
-17 -18 -25 -5 -5 8 -10 12 -10 8 0 -4 -16 7 -34 25 -71 65 -91 82 -98 82 -5
0 -19 13 -33 29 -14 16 -25 25 -25 20 0 -5 -14 7 -31 26 -17 19 -28 28 -24 20
5 -9 -1 -7 -13 5 -12 11 -33 29 -48 40 -14 11 -34 29 -45 39 -10 11 -19 16
-19 10 0 -5 -5 -1 -11 9 -5 9 -14 17 -19 17 -9 0 -36 20 -66 48 -8 7 -14 10
-14 7 0 -4 -9 3 -21 16 -11 13 -17 17 -13 9 4 -9 -1 -7 -14 5 -34 32 -52 46
-52 40 0 -6 -18 8 -52 40 -12 11 -17 13 -13 5 5 -8 -3 -5 -17 8 -13 12 -28 22
-32 22 -4 0 -14 6 -21 12 -33 29 -45 38 -45 33 0 -3 -10 3 -22 15 -12 11 -27
20 -33 20 -6 0 -21 9 -33 20 -12 12 -22 18 -22 15 0 -4 -13 3 -29 14 -16 12
-34 21 -40 21 -6 0 -11 4 -11 8 0 5 -18 17 -40 27 -22 10 -40 22 -40 27 0 4
-9 8 -20 8 -11 0 -20 3 -20 8 0 4 -10 12 -23 18 -62 29 -172 90 -175 97 -2 4
-8 5 -13 1 -5 -3 -9 -1 -9 4 0 5 -18 14 -40 21 -22 6 -40 16 -40 21 0 4 -13
11 -30 15 -16 4 -30 11 -30 16 0 6 -4 7 -10 4 -5 -3 -10 -1 -10 4 0 6 -3 10
-7 9 -5 -1 -30 9 -58 22 -27 13 -53 23 -57 22 -5 -1 -8 3 -8 10 0 6 -3 8 -6 5
-4 -3 -16 0 -28 8 -11 8 -28 15 -38 15 -10 0 -18 5 -18 10 0 6 -3 9 -7 8 -5
-1 -21 5 -38 12 -16 7 -32 14 -35 15 -3 1 -18 8 -35 15 -16 7 -33 14 -37 15
-5 2 -11 4 -15 5 -5 1 -11 2 -15 1 -5 0 -8 3 -8 9 0 6 -3 9 -7 9 -5 -1 -11 0
-15 1 -5 1 -11 3 -15 4 -5 1 -18 7 -29 14 -12 6 -24 8 -28 5 -3 -3 -6 0 -6 7
0 7 -3 10 -6 7 -4 -3 -16 -1 -28 5 -11 7 -23 13 -26 13 -3 0 -30 9 -60 20 -30
11 -58 18 -62 17 -5 -1 -8 2 -8 8 0 6 -3 9 -7 8 -10 -2 -64 13 -78 21 -5 3
-14 6 -20 7 -5 1 -35 11 -67 22 -31 11 -59 18 -62 15 -3 -4 -6 0 -6 7 0 7 -3
11 -6 7 -3 -3 -18 -1 -33 5 -29 11 -60 19 -78 20 -7 1 -13 4 -13 8 0 6 -16 10
-52 11 -10 0 -18 5 -18 11 0 6 -3 9 -6 6 -3 -4 -20 -2 -37 4 -42 12 -47 14
-82 22 -16 4 -43 11 -60 16 -16 5 -41 11 -55 14 -49 11 -115 25 -140 31 -14 3
-34 8 -45 10 -11 2 -31 6 -45 9 -23 5 -90 19 -150 31 -14 3 -40 8 -59 11 -18
3 -43 7 -54 10 -12 2 -39 6 -62 9 -22 4 -53 9 -70 12 -16 3 -41 6 -55 8 -44 5
-114 15 -145 20 -16 3 -50 7 -75 10 -25 2 -65 6 -90 9 -134 15 -215 21 -435
31 -88 4 -162 8 -165 9 -3 1 -17 0 -32 -2z"/>
</g>
</svg>
